<?xml version="1.0" encoding="UTF-8"?><svg xmlns="http://www.w3.org/2000/svg" viewBox="0 0 47.93 49.42"><path d="m46.19,19.82c-.25-.61-.52-1.2-.82-1.79-.45-.88-.95-1.73-1.5-2.55-.36-.53-.74-1.04-1.13-1.54-.68-.86-1.42-1.66-2.21-2.42-1.49-1.42-3.14-2.64-4.94-3.66-.37-.21-.75-.41-1.13-.61-.56-.3-.85-.9-.72-1.52.02-.12.07-.24.12-.36.23-.56.47-1.11.71-1.66.04-.11.09-.22.11-.33.15-.71-.24-1.4-.93-1.63-.83-.28-1.66-.56-2.49-.84-.58-.19-1.15-.39-1.73-.58-.28-.09-.55-.19-.83-.27-.68-.19-1.38.15-1.66.79-.03.07-.06.15-.1.22-.77,1.54-1.54,3.07-2.31,4.6-.81,1.61-1.61,3.21-2.42,4.82-.04.08-.08.17-.11.26-.19.73.24,1.48.96,1.7.06.02.11.03.17.04.7.18,1.38.4,2.04.68,1.53.64,2.88,1.55,4.08,2.68,1.14,1.08,2.1,2.3,2.93,3.63.23.37.46.75.68,1.13.43.72.78,1.47,1.06,2.25.38,1.04.63,2.1.71,3.21.07.9.02,1.8-.18,2.68-.26,1.2-.77,2.3-1.5,3.29-.79,1.05-1.76,1.89-2.93,2.5-.04.02-.07.04-.11.06-.64.4-1.32.71-2.05.92-2.23.64-4.39.43-6.46-.63-.88-.45-1.66-1.03-2.37-1.71-1-.94-1.82-2.02-2.48-3.22-.09-.16-.16-.32-.25-.48-.5-.89-.94-1.82-1.31-2.78-.38-.99-.66-2-.84-3.05-.33-1.93-.26-3.84.24-5.74.06-.24.13-.47.19-.7.24-.88-.44-1.72-1.25-1.75-3.1-.23-6.21-.45-9.31-.68-.5-.04-1-.08-1.5-.12-.41-.03-.76.1-1.06.37-.23.21-.37.47-.43.78-.1.47-.21.94-.31,1.41-.18.8-.35,1.61-.53,2.42-.09.43-.19.86-.28,1.28-.16.78.35,1.53,1.13,1.67.12.02.25.04.38.05.55.08,1.11.14,1.66.23.72.11,1.22.72,1.19,1.45,0,.06,0,.13-.01.19-.17,2.61.06,5.18.69,7.72.34,1.38.81,2.72,1.39,4.02.31.69.65,1.36,1.02,2.02.21.35.42.7.64,1.04.25.39.51.77.77,1.14.36.5.74.99,1.14,1.46.88,1.03,1.83,1.99,2.87,2.86,1.38,1.16,2.88,2.14,4.52,2.91,1.49.7,3.04,1.19,4.66,1.47,1.82.32,3.64.36,5.48.17.87-.09,1.74-.24,2.59-.43.86-.19,1.71-.44,2.54-.73.59-.2,1.18-.43,1.76-.68.44-.19.88-.39,1.3-.62.47-.25.93-.51,1.4-.78.45-.26.89-.53,1.32-.82.65-.44,1.27-.91,1.87-1.41,1.04-.87,2-1.81,2.88-2.84.87-1.03,1.65-2.13,2.31-3.31.94-1.69,1.62-3.47,2.02-5.36.22-1.06.34-2.13.38-3.2.05-1.55-.08-3.09-.36-4.62-.3-1.61-.75-3.16-1.37-4.67Z"/></svg>